# xmcd CD database file
#
# Track frame offsets:
#	150
#	11940
#	25825
#	38170
#	54665
#	70812
#	82960
#	97250
#	109557
#	126982
#	146087
#
# Disc length: 2244 seconds
#
# Revision: 1
# Processed by: cddbd v1.5.2PL0 Copyright (c) Steve Scherf et al.
# Submitted via: CDex 1.79
#
DISCID=9808c20b
DTITLE=Kathy Chiavola - Labor Of Love
DYEAR=1990
DGENRE=Country
TTITLE0=Well All Right
TTITLE1=A Woman In Love
TTITLE2=A Man After My Own Heart
TTITLE3=Cry Cry Darlin'
TTITLE4=Traveling At Night
TTITLE5=The Passing Of The Train
TTITLE6=A Fool Such As I
TTITLE7=Lost Dog Blues
TTITLE8=Labor Of Love
TTITLE9=Distant Melody (live in Portugal 1987)
TTITLE10=Faithless Love
EXTD=YEAR: 1990
EXTT0=
EXTT1=
EXTT2=
EXTT3=
EXTT4=
EXTT5=
EXTT6=
EXTT7=
EXTT8=
EXTT9=
EXTT10=
PLAYORDER=
